<svg width="12" height="13" viewBox="0 0 12 13" fill="none" xmlns="http://www.w3.org/2000/svg">
<path d="M2.90563 9.29354L10.4668 12.5534C10.9869 12.7778 11.3388 12.5058 11.2528 11.9459L10.0026 3.80805C9.91663 3.24815 9.55884 3.09859 9.20364 3.47421L8.23984 4.5517C7.88485 4.92716 7.30667 4.8559 6.94868 4.39274L3.9155 0.468477C3.55751 0.00531897 2.93658 -0.114823 2.52875 0.200404L1.29945 1.15057C0.891408 1.46595 0.851004 2.09688 1.20917 2.56028L4.24217 6.4843C4.60016 6.94746 4.5232 7.52511 4.0706 7.77386L2.78375 8.43596C2.33113 8.6851 2.38548 9.0692 2.90563 9.29354Z" fill="#010002"/>
</svg>
