<svg width="58" height="46" viewBox="0 0 58 46" fill="none" xmlns="http://www.w3.org/2000/svg">
<path d="M45.2889 6.9087C45.3576 6.93558 45.4291 6.94848 45.499 6.94848C45.7151 6.94848 45.9197 6.82811 46.0077 6.62916L46.8492 4.71905C46.9652 4.45556 46.8321 4.15331 46.5511 4.04427C46.2706 3.93523 45.9489 4.06031 45.8328 4.32429L44.9913 6.23385C44.8752 6.49741 45.0084 6.79966 45.2889 6.9087Z" fill="#979797"/>
<path d="M42.0275 7C37.3408 7 33.5275 10.8133 33.5275 15.5C33.5275 20.1867 37.3408 24 42.0275 24C46.7147 24 50.5275 20.1867 50.5275 15.5C50.5275 10.8133 46.7147 7 42.0275 7ZM42.0275 22.9375C37.9267 22.9375 34.5899 19.6013 34.5899 15.5C34.5899 11.3988 37.9267 8.06246 42.0275 8.06246C46.1287 8.06246 49.465 11.3987 49.465 15.5C49.465 19.6013 46.1288 22.9375 42.0275 22.9375Z" fill="#979797"/>
<path d="M46.974 3.09055C47.0422 3.11689 47.1132 3.12979 47.183 3.12979C47.3992 3.12979 47.6044 3.00888 47.6918 2.80895L48.6086 0.713398C48.7241 0.449357 48.5899 0.147657 48.3088 0.0391583C48.0283 -0.069885 47.7066 0.0567166 47.5911 0.320758L46.6743 2.41631C46.5593 2.68035 46.6929 2.98205 46.974 3.09055Z" fill="#979797"/>
<path d="M35.3091 2.809C35.3971 3.00844 35.6017 3.12935 35.8184 3.12935C35.8877 3.12935 35.9587 3.11694 36.0274 3.09012C36.3079 2.98162 36.4421 2.67986 36.3266 2.41588L35.4087 0.320747C35.2932 0.0567065 34.9725 -0.0698345 34.6909 0.0391482C34.4099 0.148191 34.2763 0.449892 34.3912 0.713388L35.3091 2.809Z" fill="#979797"/>
<path d="M41.4999 6.20036C41.8041 6.20036 42.0499 5.96889 42.0499 5.68372V2.06707C42.0499 1.7819 41.8041 1.55043 41.4999 1.55043C41.1964 1.55043 40.95 1.7819 40.95 2.06707V5.68366C40.95 5.96889 41.1964 6.20036 41.4999 6.20036Z" fill="#979797"/>
<path d="M36.1512 4.71961L36.9933 6.62917C37.0812 6.82806 37.2859 6.94794 37.5015 6.94794C37.5718 6.94794 37.6434 6.93505 37.7121 6.90865C37.9926 6.79912 38.1257 6.49688 38.0097 6.23338L37.1671 4.32382C37.0505 4.06033 36.7293 3.9353 36.4488 4.04428C36.1677 4.15387 36.0346 4.45557 36.1512 4.71961Z" fill="#979797"/>
<path d="M51.9498 14.9835C51.6462 14.9835 51.3998 15.215 51.3998 15.5002C51.3998 15.7853 51.6462 16.0168 51.9498 16.0168H56.3498C56.654 16.0168 56.8998 15.7853 56.8998 15.5002C56.8998 15.215 56.654 14.9835 56.3498 14.9835H51.9498Z" fill="#979797"/>
<path d="M33.9159 8.99961C34.0238 9.10091 34.164 9.15098 34.3048 9.15098C34.4455 9.15098 34.5864 9.10084 34.6936 8.99961C34.9086 8.79811 34.9086 8.47105 34.6936 8.26906L31.5828 5.34681C31.3677 5.14483 31.0201 5.14483 30.8051 5.34681C30.59 5.54831 30.59 5.87538 30.8051 6.07736L33.9159 8.99961Z" fill="#979797"/>
<path d="M32.0109 16.3084C32.1586 16.3005 32.2917 16.2338 32.3891 16.1321C32.4864 16.0304 32.5475 15.8939 32.5485 15.7465C32.5515 15.4518 32.3152 15.2257 32.0206 15.2414L27.7586 15.469C27.464 15.4848 27.2237 15.7359 27.221 16.0309C27.2179 16.3256 27.4542 16.5517 27.7488 16.536L32.0109 16.3084Z" fill="#979797"/>
<path d="M55.2195 10.6787C55.2894 10.6787 55.3598 10.6663 55.4286 10.64L57.6593 9.77814C57.9398 9.66965 58.074 9.3674 57.9585 9.1039C57.8436 8.83986 57.5218 8.71332 57.2408 8.82231L55.01 9.68412C54.7295 9.79261 54.5953 10.0949 54.7108 10.3584C54.7983 10.5583 55.0034 10.6787 55.2195 10.6787Z" fill="#979797"/>
<path d="M50.6464 11.9415C50.7344 12.1409 50.9391 12.2608 51.1546 12.2608C51.225 12.2608 51.2966 12.2479 51.3653 12.221L53.3975 11.43C53.678 11.3209 53.8117 11.0187 53.6951 10.7547C53.5785 10.4912 53.2562 10.3662 52.9768 10.4752L50.944 11.2667C50.6635 11.3757 50.5304 11.678 50.6464 11.9415Z" fill="#979797"/>
<path d="M48.6949 8.9996C48.8028 9.1009 48.943 9.15097 49.0838 9.15097C49.2246 9.15097 49.3654 9.10084 49.4726 8.9996L52.1951 6.44269C52.4096 6.24064 52.4096 5.91364 52.1951 5.71214C51.98 5.5101 51.6319 5.5101 51.4174 5.71214L48.6949 8.26906C48.4805 8.4711 48.4805 8.79811 48.6949 8.9996Z" fill="#979797"/>
<path d="M45.0919 10.298C44.8368 10.1424 44.4963 10.2101 44.3307 10.4493C44.1652 10.6885 44.2378 11.0089 44.4925 11.1639C45.3048 11.6599 45.9659 12.3496 46.4048 13.1587C46.5021 13.338 46.6952 13.4408 46.8954 13.4408C46.979 13.4408 47.0643 13.4227 47.1446 13.3845C47.4151 13.2548 47.5224 12.9438 47.3849 12.6896C46.8585 11.7193 46.0654 10.8922 45.0919 10.298Z" fill="#979797"/>
<path d="M49.4727 22.1517C49.2582 21.9502 48.91 21.9502 48.695 22.1517C48.4805 22.3537 48.4805 22.6808 48.695 22.8828L51.8063 25.805C51.9136 25.9063 52.0544 25.9564 52.1952 25.9564C52.3354 25.9564 52.4762 25.9062 52.584 25.805C52.7985 25.6035 52.7985 25.2764 52.584 25.0744L49.4727 22.1517Z" fill="#979797"/>
<path d="M53.3974 19.5704L51.3647 18.7794C51.0836 18.6704 50.7624 18.7949 50.6458 19.0589C50.5297 19.3224 50.6629 19.6247 50.9434 19.7337L52.9768 20.5252C53.0455 20.5521 53.1164 20.565 53.1869 20.565C53.4025 20.565 53.607 20.4447 53.6951 20.2457C53.8116 19.9822 53.678 19.68 53.3974 19.5704Z" fill="#979797"/>
<path d="M57.6588 21.2222L55.4286 20.3614C55.1481 20.2524 54.8263 20.379 54.7108 20.643C54.5953 20.9065 54.7295 21.2082 55.0106 21.3167L57.2408 22.178C57.309 22.2043 57.38 22.2167 57.4499 22.2167C57.666 22.2167 57.8712 22.0963 57.9586 21.8964C58.074 21.6324 57.9398 21.3307 57.6588 21.2222Z" fill="#979797"/>
<path d="M25.341 9.77822L27.5723 10.6395C27.6405 10.6658 27.7115 10.6782 27.7808 10.6782C27.9974 10.6782 28.2026 10.5579 28.2901 10.3579C28.4056 10.0938 28.2714 9.79214 27.9903 9.68364L25.7589 8.82238C25.479 8.71333 25.1567 8.83994 25.0412 9.10398C24.9263 9.36796 25.0599 9.66972 25.341 9.77822Z" fill="#979797"/>
<path d="M29.6024 11.43L31.6358 12.221C31.7045 12.2479 31.776 12.2608 31.8459 12.2608C32.062 12.2608 32.2666 12.1404 32.3541 11.9415C32.4707 11.678 32.3376 11.3757 32.0565 11.2667L30.0237 10.4751C29.7421 10.3661 29.4215 10.4917 29.3049 10.7547C29.1888 11.0187 29.3219 11.3209 29.6024 11.43Z" fill="#979797"/>
<path d="M31.9309 20.1617C23.6217 12.0252 9.49175 16.4534 7.40139 27.9436C4.44837 28.3699 1.91815 30.3028 0.723926 33.0502C0.722442 33.0535 0.720959 33.0567 0.719568 33.0601C-1.75484 38.7718 2.46121 45.1352 8.64801 45.1352H34.8196C41.7964 45.1352 47.4724 39.4593 47.4724 32.4825C47.4724 24.3777 39.8985 18.2991 31.9309 20.1617ZM34.8196 42.1686H8.6481C2.22765 42.1686 0.810155 33.0577 6.91295 31.0927C8.28084 30.6616 10.9008 30.4114 13.8094 33.1225C14.4088 33.6811 15.3473 33.648 15.9058 33.0489C16.4643 32.4496 16.4313 31.5111 15.8322 30.9525C14.1697 29.403 12.3023 28.4185 10.4096 28.0362C12.4526 18.8499 24.074 15.8111 30.3672 22.8157C30.7556 23.2478 31.3606 23.4138 31.9149 23.2394C38.1524 21.2814 44.5058 25.9629 44.5058 32.4826C44.5059 37.8234 40.1607 42.1686 34.8196 42.1686Z" fill="black"/>
</svg>
