<svg width="48" height="30" viewBox="0 0 48 30" fill="none" xmlns="http://www.w3.org/2000/svg">
    <path d="M32.4034 4.16175C24.0943 -3.97475 9.96429 0.453434 7.87393 11.9436C4.92091 12.3699 2.39069 14.3028 1.19646 17.0502C1.19498 17.0535 1.19349 17.0567 1.1921 17.0601C-1.2823 22.7718 2.93374 29.1352 9.12054 29.1352H35.2922C42.2689 29.1352 47.9449 23.4593 47.9449 16.4825C47.9449 8.3777 40.3711 2.29911 32.4034 4.16175ZM35.2922 26.1686H9.12063C2.70018 26.1686 1.28269 17.0577 7.38548 15.0927C8.75337 14.6616 11.3733 14.4114 14.282 17.1225C14.8813 17.6811 15.8198 17.648 16.3783 17.0489C16.9369 16.4496 16.9039 15.5111 16.3047 14.9525C14.6423 13.403 12.7748 12.4185 10.8821 12.0362C12.9251 2.84986 24.5466 -0.188925 30.8397 6.81566C31.2281 7.24782 31.8331 7.41379 32.3875 7.23939C38.6249 5.28143 44.9783 9.96292 44.9783 16.4826C44.9784 21.8234 40.6332 26.1686 35.2922 26.1686Z" fill="black" />
</svg>