<svg width="48" height="44" viewBox="0 0 48 44" fill="none" xmlns="http://www.w3.org/2000/svg">
<path d="M31.9309 4.16175C23.6217 -3.97475 9.49175 0.453434 7.40139 11.9436C4.44837 12.3699 1.91815 14.3028 0.723926 17.0502C0.722442 17.0535 0.720959 17.0567 0.719568 17.0601C-1.75484 22.7718 2.46121 29.1352 8.64801 29.1352H34.8196C41.7964 29.1352 47.4724 23.4593 47.4724 16.4825C47.4724 8.3777 39.8985 2.29911 31.9309 4.16175ZM34.8196 26.1686H8.6481C2.22765 26.1686 0.810155 17.0577 6.91295 15.0927C8.28084 14.6616 10.9008 14.4114 13.8094 17.1225C14.4088 17.6811 15.3473 17.648 15.9058 17.0489C16.4643 16.4496 16.4313 15.5111 15.8322 14.9525C14.1697 13.403 12.3023 12.4185 10.4096 12.0362C12.4526 2.84986 24.074 -0.188925 30.3672 6.81566C30.7556 7.24782 31.3606 7.41379 31.9149 7.23939C38.1524 5.28143 44.5058 9.96292 44.5058 16.4826C44.5059 21.8234 40.1607 26.1686 34.8196 26.1686Z" fill="black"/>
<path d="M10.5 30.5L8.5 34.5" stroke="black"/>
<path d="M17 38L15 42" stroke="black"/>
<path d="M28 39L26 43" stroke="black"/>
<path d="M20 31L18 35" stroke="black"/>
<path d="M35 31L33 35" stroke="black"/>
<path d="M27 33L25 37" stroke="black"/>
<path d="M10.5 30.5L8.5 34.5" stroke="black"/>
</svg>
