<svg width="40" height="34" viewBox="0 0 40 34" fill="none" xmlns="http://www.w3.org/2000/svg">
<path d="M18.1607 2.42833C13.4349 -2.31922 5.39845 0.264573 4.20955 6.96894C2.53002 7.21769 1.09095 8.34553 0.411734 9.94858C0.41089 9.95047 0.410046 9.95237 0.409255 9.95437C-0.998065 13.2871 1.39982 17 4.91857 17H19.8037C23.7718 17 27 13.6882 27 9.61732C27 4.88828 22.6923 1.3415 18.1607 2.42833ZM19.8037 15.2691H4.91862C1.26698 15.2691 0.460777 9.95296 3.93175 8.80641C4.70974 8.55484 6.19985 8.40888 7.85413 9.99078C8.195 10.3167 8.72878 10.2974 9.04645 9.94782C9.36412 9.59812 9.34535 9.05051 9.00458 8.72461C8.05905 7.82048 6.99693 7.24604 5.92046 7.02298C7.08241 1.66286 13.6921 -0.110235 17.2714 3.97685C17.4923 4.22901 17.8364 4.32585 18.1517 4.22409C21.6992 3.08165 25.3127 5.81324 25.3127 9.61738C25.3128 12.7337 22.8414 15.2691 19.8037 15.2691Z" fill="black"/>
<path d="M31.1607 19.4283C26.4349 14.6808 18.3984 17.2646 17.2096 23.9689C15.53 24.2177 14.091 25.3455 13.4117 26.9486C13.4109 26.9505 13.41 26.9524 13.4093 26.9544C12.0019 30.2871 14.3998 34 17.9186 34H32.8037C36.7718 34 40 30.6882 40 26.6173C40 21.8883 35.6923 18.3415 31.1607 19.4283ZM32.8037 32.2691H17.9186C14.267 32.2691 13.4608 26.953 16.9317 25.8064C17.7097 25.5548 19.1999 25.4089 20.8541 26.9908C21.195 27.3167 21.7288 27.2974 22.0464 26.9478C22.3641 26.5981 22.3453 26.0505 22.0046 25.7246C21.0591 24.8205 19.9969 24.246 18.9205 24.023C20.0824 18.6629 26.6921 16.8898 30.2714 20.9768C30.4923 21.229 30.8364 21.3259 31.1517 21.2241C34.6992 20.0816 38.3127 22.8132 38.3127 26.6174C38.3128 29.7337 35.8414 32.2691 32.8037 32.2691Z" fill="black"/>
</svg>
