<svg width="36" height="36" viewBox="0 0 36 36" fill="none" xmlns="http://www.w3.org/2000/svg">
<path d="M22.1333 8.02302C22.2083 8.05424 22.2863 8.06922 22.3625 8.06922C22.5984 8.06922 22.8215 7.92944 22.9175 7.69839L23.8355 5.48021C23.9621 5.17421 23.8169 4.82322 23.5103 4.69659C23.2043 4.56996 22.8533 4.71522 22.7267 5.02178L21.8087 7.23933C21.6821 7.5454 21.8273 7.89639 22.1333 8.02302Z" fill="#979797"/>
<path d="M17.9999 8.40039C12.7067 8.40039 8.39996 12.7071 8.39996 18.0002C8.39996 23.2933 12.7067 27.6001 17.9999 27.6001C23.2937 27.6001 27.5998 23.2933 27.5998 18.0002C27.5999 12.7071 23.2937 8.40039 17.9999 8.40039ZM17.9999 26.4001C13.3685 26.4001 9.59991 22.6322 9.59991 18.0002C9.59991 13.3683 13.3685 9.60033 17.9999 9.60033C22.6318 9.60033 26.3999 13.3682 26.3999 18.0002C26.3999 22.6322 22.6319 26.4001 17.9999 26.4001Z" fill="#979797"/>
<path d="M23.9717 3.58903C24.0461 3.61962 24.1235 3.63459 24.1997 3.63459C24.4355 3.63459 24.6594 3.49418 24.7547 3.26201L25.7549 0.828462C25.8809 0.521834 25.7345 0.171472 25.4279 0.0454741C25.1219 -0.0811568 24.7709 0.0658644 24.6449 0.372493L23.6447 2.80604C23.5193 3.11267 23.6651 3.46303 23.9717 3.58903Z" fill="#979797"/>
<path d="M11.2463 3.26205C11.3423 3.49366 11.5655 3.63407 11.8019 3.63407C11.8775 3.63407 11.9549 3.61966 12.0299 3.58851C12.3359 3.46251 12.4823 3.11208 12.3563 2.80552L11.3549 0.372463C11.2289 0.065835 10.8791 -0.0811159 10.5719 0.0454447C10.2653 0.172076 10.1195 0.522437 10.2449 0.828433L11.2463 3.26205Z" fill="#979797"/>
<path d="M17.9999 7.20042C18.3317 7.20042 18.5998 6.93162 18.5998 6.60046V2.40047C18.5998 2.06931 18.3317 1.80051 17.9999 1.80051C17.6687 1.80051 17.3999 2.06931 17.3999 2.40047V6.60039C17.3999 6.93162 17.6687 7.20042 17.9999 7.20042Z" fill="#979797"/>
<path d="M12.165 5.48082L13.0836 7.69837C13.1796 7.92935 13.4028 8.06856 13.638 8.06856C13.7148 8.06856 13.7928 8.05359 13.8678 8.02293C14.1738 7.89574 14.319 7.54474 14.1924 7.23875L13.2732 5.02119C13.146 4.7152 12.7956 4.57001 12.4896 4.69657C12.183 4.82383 12.0378 5.17419 12.165 5.48082Z" fill="#979797"/>
<path d="M29.3998 17.4002C29.0687 17.4002 28.7999 17.669 28.7999 18.0002C28.7999 18.3314 29.0687 18.6002 29.3998 18.6002H34.1998C34.5316 18.6002 34.7998 18.3314 34.7998 18.0002C34.7998 17.669 34.5316 17.4002 34.1998 17.4002H29.3998Z" fill="#979797"/>
<path d="M9.72645 10.4511C9.84408 10.5688 9.99708 10.6269 10.1506 10.6269C10.3042 10.6269 10.4578 10.5687 10.5748 10.4511C10.8094 10.2171 10.8094 9.83732 10.5748 9.60277L7.18122 6.20918C6.94659 5.97462 6.5674 5.97462 6.33283 6.20918C6.0982 6.44318 6.0982 6.823 6.33283 7.05756L9.72645 10.4511Z" fill="#979797"/>
<path d="M32.9668 12.4011C33.043 12.4011 33.1198 12.3866 33.1948 12.3561L35.6284 11.3552C35.9344 11.2293 36.0808 10.8783 35.9548 10.5723C35.8293 10.2656 35.4783 10.1187 35.1718 10.2452L32.7382 11.2461C32.4322 11.3721 32.2858 11.723 32.4118 12.029C32.5072 12.2613 32.731 12.4011 32.9668 12.4011Z" fill="#979797"/>
<path d="M27.9779 13.8675C28.0739 14.0991 28.2972 14.2383 28.5324 14.2383C28.6091 14.2383 28.6872 14.2234 28.7621 14.1921L30.9791 13.2735C31.2851 13.1469 31.431 12.7959 31.3038 12.4893C31.1766 12.1833 30.825 12.0381 30.5202 12.1647L28.3026 13.0839C27.9965 13.2105 27.8513 13.5615 27.9779 13.8675Z" fill="#979797"/>
<path d="M25.849 10.4511C25.9667 10.5688 26.1197 10.6269 26.2732 10.6269C26.4269 10.6269 26.5804 10.5687 26.6974 10.4511L29.6674 7.48181C29.9014 7.24718 29.9014 6.86743 29.6674 6.63343C29.4328 6.3988 29.053 6.3988 28.819 6.63343L25.849 9.60275C25.6151 9.83738 25.6151 10.2171 25.849 10.4511Z" fill="#979797"/>
<path d="M21.9185 11.9589C21.6401 11.7783 21.2687 11.8569 21.0881 12.1347C20.9075 12.4125 20.9867 12.7845 21.2645 12.9645C22.1507 13.5405 22.8719 14.3415 23.3507 15.2811C23.4568 15.4893 23.6675 15.6086 23.8859 15.6086C23.9771 15.6086 24.0701 15.5876 24.1577 15.5433C24.4529 15.3926 24.5699 15.0315 24.4199 14.7363C23.8457 13.6095 22.9805 12.649 21.9185 11.9589Z" fill="#979797"/>
<path d="M24.7522 32.7354C24.6244 32.43 24.2728 32.2866 23.9674 32.4133C23.6614 32.5411 23.5174 32.8926 23.6446 33.1986L24.646 35.5938C24.7426 35.8236 24.9658 35.9628 25.2004 35.9628C25.2772 35.9628 25.3558 35.9478 25.4314 35.916C25.7367 35.7881 25.8814 35.4366 25.7535 35.1311L24.7522 32.7354Z" fill="#979797"/>
<path d="M26.6975 25.7245C26.4635 25.4905 26.0836 25.4905 25.8491 25.7245C25.6151 25.9592 25.6151 26.3389 25.8491 26.5736L29.2433 29.9671C29.3603 30.0847 29.5139 30.1428 29.6675 30.1428C29.8205 30.1428 29.9741 30.0846 30.0916 29.9671C30.3256 29.7331 30.3256 29.3532 30.0916 29.1187L26.6975 25.7245Z" fill="#979797"/>
<path d="M23.8355 30.5203L22.9169 28.3016C22.7897 27.9962 22.4393 27.8497 22.1327 27.977C21.8267 28.1042 21.6815 28.4552 21.808 28.7612L22.7267 30.9794C22.8227 31.2103 23.0459 31.3502 23.2816 31.3502C23.3579 31.3502 23.4353 31.3352 23.5109 31.304C23.8169 31.1773 23.9621 30.8263 23.8355 30.5203Z" fill="#979797"/>
<path d="M13.8683 27.9774C13.5617 27.8496 13.2107 27.9961 13.0842 28.3021L12.165 30.5202C12.0378 30.8262 12.183 31.1772 12.4896 31.3039C12.5646 31.3351 12.6426 31.3501 12.7188 31.3501C12.9546 31.3501 13.1778 31.2108 13.2732 30.9792L14.193 28.7611C14.3195 28.4551 14.1743 28.1041 13.8683 27.9774Z" fill="#979797"/>
<path d="M17.9999 28.8001C17.6687 28.8001 17.3999 29.0689 17.3999 29.4001V34.2001C17.3999 34.5312 17.6687 34.8 17.9999 34.8C18.3317 34.8 18.5998 34.5312 18.5998 34.2001V29.4001C18.5999 29.0689 18.3317 28.8001 17.9999 28.8001Z" fill="#979797"/>
<path d="M30.979 22.727L28.7614 21.8083C28.4548 21.6817 28.1044 21.8263 27.9772 22.133C27.8506 22.439 27.9958 22.79 28.3018 22.9166L30.52 23.8358C30.5951 23.867 30.6724 23.882 30.7493 23.882C30.9845 23.882 31.2076 23.7422 31.3037 23.5111C31.4308 23.2052 31.285 22.8542 30.979 22.727Z" fill="#979797"/>
<path d="M35.6278 24.6451L33.1948 23.6455C32.8888 23.5189 32.5378 23.6659 32.4118 23.9725C32.2858 24.2785 32.4322 24.6289 32.7388 24.7549L35.1718 25.7551C35.2462 25.7857 35.3236 25.8001 35.3998 25.8001C35.6357 25.8001 35.8595 25.6603 35.9548 25.428C36.0807 25.1216 35.9344 24.7711 35.6278 24.6451Z" fill="#979797"/>
<path d="M12.0281 32.4114C11.7221 32.2854 11.3711 32.4318 11.2451 32.7378L10.2449 35.172C10.1195 35.4786 10.2653 35.829 10.5719 35.955C10.6463 35.9856 10.7237 36 10.7999 36C11.0358 36 11.2595 35.8602 11.3549 35.628L12.3551 33.1944C12.4811 32.8878 12.3347 32.5374 12.0281 32.4114Z" fill="#979797"/>
<path d="M0.371958 11.3553L2.80616 12.3555C2.88055 12.3861 2.95797 12.4005 3.03355 12.4005C3.26994 12.4005 3.49375 12.2607 3.58916 12.0285C3.71516 11.7219 3.56877 11.3715 3.26214 11.2455L0.827932 10.2453C0.522566 10.1187 0.170935 10.2657 0.044936 10.5724C-0.0804305 10.8789 0.0653968 11.2293 0.371958 11.3553Z" fill="#979797"/>
<path d="M1.79992 17.4002C1.46875 17.4002 1.19995 17.669 1.19995 18.0002C1.19995 18.3314 1.46875 18.6002 1.79992 18.6002H6.59992C6.93173 18.6002 7.1999 18.3314 7.1999 18.0002C7.1999 17.669 6.93173 17.4002 6.59992 17.4002H1.79992Z" fill="#979797"/>
<path d="M5.02077 13.2735L7.23898 14.1921C7.314 14.2234 7.39198 14.2383 7.4682 14.2383C7.70402 14.2383 7.92719 14.0986 8.02261 13.8675C8.1498 13.5615 8.00461 13.2105 7.69798 13.0839L5.4804 12.1647C5.17321 12.0381 4.8234 12.1839 4.69621 12.4893C4.56958 12.7959 4.71477 13.1469 5.02077 13.2735Z" fill="#979797"/>
<path d="M2.80554 23.6444L0.371967 24.6451C0.065336 24.7711 -0.0804211 25.1221 0.0449455 25.4281C0.140359 25.6603 0.364163 25.8001 0.600552 25.8001C0.676138 25.8001 0.753551 25.7857 0.828574 25.7551L3.26158 24.7538C3.56822 24.6278 3.71461 24.2774 3.58861 23.9708C3.46254 23.6648 3.11273 23.5178 2.80554 23.6444Z" fill="#979797"/>
<path d="M8.02314 22.1336C7.89651 21.827 7.54495 21.6818 7.23952 21.8084L5.02131 22.727C4.71531 22.8537 4.56948 23.2046 4.69611 23.5106C4.79209 23.7416 5.01533 23.8815 5.25109 23.8815C5.32731 23.8815 5.40528 23.8665 5.48031 23.8359L7.69851 22.9173C8.00458 22.7906 8.15034 22.4396 8.02314 22.1336Z" fill="#979797"/>
<path d="M10.5748 25.7245C10.3408 25.4905 9.96101 25.4905 9.72645 25.7245L6.33283 29.1187C6.0982 29.3533 6.0982 29.7331 6.33283 29.9671C6.44983 30.0847 6.60347 30.1428 6.75703 30.1428C6.91066 30.1428 7.06422 30.0846 7.18122 29.9671L10.5748 26.5736C10.8095 26.3389 10.8095 25.9591 10.5748 25.7245Z" fill="#979797"/>
</svg>
